<svg xmlns="http://www.w3.org/2000/svg" viewBox="0 0 122.88 122.88"><defs><style>.cls-1{fill:#fff;}.cls-2{fill:none;stroke:#fff;stroke-miterlimit:10;stroke-width:0.25px;}</style></defs><g id="Layer_2" data-name="Layer 2"><g id="Layer_1-2" data-name="Layer 1"><path class="cls-1" d="M30.55,22.32V15.54h2.88a2.16,2.16,0,0,1,1.08.27,1.89,1.89,0,0,1,.78.73,2,2,0,0,1,.29,1.09,2.1,2.1,0,0,1-.27,1.07,2,2,0,0,1-.77.74,2.39,2.39,0,0,1-1.16.26H30.79v2.62Zm.24-2.84h2.57a2.22,2.22,0,0,0,1-.22,1.61,1.61,0,0,0,.71-.63,1.8,1.8,0,0,0,.27-1,1.78,1.78,0,0,0-.27-1,1.69,1.69,0,0,0-.71-.64,2.08,2.08,0,0,0-1-.22H30.79Z"/><path class="cls-1" d="M39,22.44a2.47,2.47,0,0,1-1.34-.34,2.19,2.19,0,0,1-.84-.94,3,3,0,0,1-.28-1.32,2.85,2.85,0,0,1,.3-1.32,2.48,2.48,0,0,1,.87-.92,2.65,2.65,0,0,1,1.35-.33,2.43,2.43,0,0,1,1.27.33,2.25,2.25,0,0,1,.85.88,2.58,2.58,0,0,1,.31,1.28v2.56h-.24V21h0a2.32,2.32,0,0,1-.43.64,2.51,2.51,0,0,1-.75.55A2.31,2.31,0,0,1,39,22.44Zm0-.21a2.12,2.12,0,0,0,1.14-.31,2.24,2.24,0,0,0,.81-.86,2.42,2.42,0,0,0,.29-1.24,2.59,2.59,0,0,0-.27-1.2,2.13,2.13,0,0,0-.76-.84,2.21,2.21,0,0,0-1.17-.3,2.19,2.19,0,0,0-1.2.31,2.09,2.09,0,0,0-.78.86,2.8,2.8,0,0,0-.27,1.25,2.71,2.71,0,0,0,.26,1.17,2,2,0,0,0,.75.84A2.19,2.19,0,0,0,39,22.23Z"/><path class="cls-1" d="M43.15,22.32v-2.9a2.14,2.14,0,0,1,.31-1.2,2,2,0,0,1,.81-.72,2.31,2.31,0,0,1,1-.24,2.26,2.26,0,0,1,1,.24,2,2,0,0,1,.81.72,2.14,2.14,0,0,1,.31,1.2v2.9H47.2V19.46a2,2,0,0,0-.28-1.1,1.8,1.8,0,0,0-.71-.66,2,2,0,0,0-.93-.22,1.93,1.93,0,0,0-.9.22,1.79,1.79,0,0,0-.72.65,2.12,2.12,0,0,0-.27,1.11v2.86Z"/><path class="cls-1" d="M50.4,22.28a2.4,2.4,0,0,1-.79-.48,2.49,2.49,0,0,1-.56-.81,2.9,2.9,0,0,1-.21-1.14,2.7,2.7,0,0,1,.35-1.41,2.44,2.44,0,0,1,2.09-1.17,2.26,2.26,0,0,1,.9.18,2.45,2.45,0,0,1,.76.5,2.22,2.22,0,0,1,.5.72h0V15.25h.24v4.68a2.61,2.61,0,0,1-.35,1.39,2.36,2.36,0,0,1-.91.84,2.55,2.55,0,0,1-2.05.12ZM52.34,22a2,2,0,0,0,.81-.79,2.45,2.45,0,0,0,.32-1.3,2.53,2.53,0,0,0-.32-1.32,2.17,2.17,0,0,0-.82-.8,2.34,2.34,0,0,0-1.06-.26,2.12,2.12,0,0,0-1.05.28,2.25,2.25,0,0,0-.81.81,2.33,2.33,0,0,0-.32,1.27,2.42,2.42,0,0,0,.32,1.31,2.09,2.09,0,0,0,.83.79,2.23,2.23,0,0,0,1.06.27A2.26,2.26,0,0,0,52.34,22Z"/><path class="cls-1" d="M57.61,22.44a2.45,2.45,0,0,1-1.3-.34,2.49,2.49,0,0,1-.88-.94,2.73,2.73,0,0,1-.32-1.31,2.8,2.8,0,0,1,.32-1.32,2.54,2.54,0,0,1,.88-.93,2.66,2.66,0,0,1,2.6,0,2.54,2.54,0,0,1,.88.93,2.86,2.86,0,0,1,0,2.63,2.49,2.49,0,0,1-.88.94A2.45,2.45,0,0,1,57.61,22.44Zm0-.22a2.18,2.18,0,0,0,1.17-.32,2.16,2.16,0,0,0,.79-.85,2.4,2.4,0,0,0,.29-1.2,2.43,2.43,0,0,0-.29-1.21,2.31,2.31,0,0,0-.79-.85,2.36,2.36,0,0,0-2.34,0,2.31,2.31,0,0,0-.79.85,2.43,2.43,0,0,0-.29,1.21,2.4,2.4,0,0,0,.29,1.2,2.16,2.16,0,0,0,.79.85A2.18,2.18,0,0,0,57.61,22.22Z"/><path class="cls-1" d="M61.51,22.32V18.78a1.4,1.4,0,0,1,.37-1,1.42,1.42,0,0,1,1-.37h.5v.22H63a1.23,1.23,0,0,0-.93.33,1.37,1.37,0,0,0-.3.95v3.44Z"/><path class="cls-1" d="M66.6,22.44a2.47,2.47,0,0,1-1.34-.34,2.19,2.19,0,0,1-.84-.94,3,3,0,0,1-.28-1.32,2.85,2.85,0,0,1,.3-1.32,2.48,2.48,0,0,1,.87-.92,2.65,2.65,0,0,1,1.35-.33,2.43,2.43,0,0,1,1.27.33,2.25,2.25,0,0,1,.85.88,2.58,2.58,0,0,1,.31,1.28v2.56h-.24V21h0a2.32,2.32,0,0,1-.43.64,2.51,2.51,0,0,1-.75.55A2.31,2.31,0,0,1,66.6,22.44Zm0-.21a2.12,2.12,0,0,0,1.14-.31,2.24,2.24,0,0,0,.81-.86,2.42,2.42,0,0,0,.29-1.24,2.59,2.59,0,0,0-.27-1.2,2.13,2.13,0,0,0-.76-.84,2.21,2.21,0,0,0-1.17-.3,2.19,2.19,0,0,0-1.2.31,2.09,2.09,0,0,0-.78.86,2.8,2.8,0,0,0-.27,1.25,2.71,2.71,0,0,0,.26,1.17,2,2,0,0,0,.75.84A2.19,2.19,0,0,0,66.6,22.23Z"/><path class="cls-1" d="M72.9,22.32V15.54h4.16a2.12,2.12,0,0,1,1,.24,1.93,1.93,0,0,1,.72.64,1.78,1.78,0,0,1,.27,1,1.41,1.41,0,0,1-.11.54,1.44,1.44,0,0,1-.28.48,1.9,1.9,0,0,1-.42.38,1.74,1.74,0,0,1,.51.42,1.64,1.64,0,0,1,.34.55,1.69,1.69,0,0,1,.12.64,1.85,1.85,0,0,1-.27,1,2,2,0,0,1-.74.67,2.23,2.23,0,0,1-1,.24ZM75,18.16h1.47a.47.47,0,0,0,.26-.08.46.46,0,0,0,.16-.18.51.51,0,0,0,0-.48.44.44,0,0,0-.16-.17.42.42,0,0,0-.26-.07H75Zm0,2.57h1.72a.44.44,0,0,0,.26-.07.53.53,0,0,0,.17-.19.58.58,0,0,0,.06-.26.53.53,0,0,0-.06-.26.73.73,0,0,0-.17-.18.53.53,0,0,0-.26-.07H75Z"/><path class="cls-1" d="M80.08,20.44V19.23h2.74v1.21Z"/><path class="cls-1" d="M83.09,22.32V20.59h1.23V17.27H83.19V15.54h3.07v5.05h1.12v1.73Z"/><path class="cls-1" d="M89.53,22.32a1.69,1.69,0,0,1-.84-.21,1.48,1.48,0,0,1-.57-.54,1.5,1.5,0,0,1-.2-.75,1.4,1.4,0,0,1,.16-.66,1.49,1.49,0,0,1,.47-.53l1.93-1.36a1,1,0,0,0,.25-.24.52.52,0,0,0,.09-.29.44.44,0,0,0-.07-.26.6.6,0,0,0-.19-.16.76.76,0,0,0-.27-.05H88.16V15.54h2.28a2.33,2.33,0,0,1,1.18.3,2.25,2.25,0,0,1,.83.79,2.06,2.06,0,0,1,.3,1.1,2.2,2.2,0,0,1-.25,1.07,2.33,2.33,0,0,1-.83.82l-1.3.83-.05,0a.09.09,0,0,0,0,.05.05.05,0,0,0,0,0h2.49v1.73Z"/><path class="cls-1" d="M44,53.94a2,2,0,0,1-1-.23,1.79,1.79,0,0,1-.66-.62,1.64,1.64,0,0,1-.24-.88,1.66,1.66,0,0,1,.24-.88,1.77,1.77,0,0,1,.66-.61,1.9,1.9,0,0,1,1-.23h.42v.66h-.44a1,1,0,0,0-.55.14,1,1,0,0,0-.37.38,1.11,1.11,0,0,0,0,1.08.9.9,0,0,0,.37.38,1,1,0,0,0,.55.14h.44v.67Z"/><path class="cls-1" d="M45,53.94V49h.78v4.94Z"/><path class="cls-1" d="M47.14,50a.47.47,0,0,1-.35-.14.49.49,0,0,1-.15-.36.49.49,0,0,1,.15-.35.49.49,0,0,1,.36-.15.49.49,0,0,1,.35.15.52.52,0,0,1,.14.35.49.49,0,0,1-.15.36A.45.45,0,0,1,47.14,50Zm-.38,3.94V50.49h.77v3.45Z"/><path class="cls-1" d="M50.13,53.94a2,2,0,0,1-1-.23,1.79,1.79,0,0,1-.66-.62,1.56,1.56,0,0,1-.25-.88,1.58,1.58,0,0,1,.25-.88,1.77,1.77,0,0,1,.66-.61,1.88,1.88,0,0,1,1-.23h.42v.66h-.43a1,1,0,0,0-.55.14,1,1,0,0,0-.38.38,1.19,1.19,0,0,0,0,1.08.93.93,0,0,0,.38.38,1,1,0,0,0,.55.14h.43v.67Z"/><path class="cls-1" d="M51.23,53.94V49H52v2.87h.74l.87-1.38h.86l-1,1.5a1.48,1.48,0,0,1,.73.54,1.56,1.56,0,0,1,.25.88v.53h-.78v-.53A.82.82,0,0,0,53.6,53a.87.87,0,0,0-.31-.32.84.84,0,0,0-.45-.11H52v1.4Z"/><path class="cls-1" d="M56.71,51.15v-.66h2.45v.66Zm1.58,2.79a.94.94,0,0,1-.72-.27.93.93,0,0,1-.26-.71V49.62h.77v3.3a.37.37,0,0,0,.09.26.37.37,0,0,0,.25.09h.73v.67Z"/><path class="cls-1" d="M61.4,54a1.79,1.79,0,0,1-1.59-.89,1.78,1.78,0,0,1-.24-.92,1.8,1.8,0,0,1,.24-.92,1.79,1.79,0,0,1,1.59-.89,1.86,1.86,0,0,1,1,.24,1.76,1.76,0,0,1,.65.65,1.8,1.8,0,0,1,.24.92,1.78,1.78,0,0,1-.89,1.57A1.86,1.86,0,0,1,61.4,54Zm0-.66A1,1,0,0,0,62,53.2a1,1,0,0,0,.37-.41,1.24,1.24,0,0,0,.13-.58,1.27,1.27,0,0,0-.13-.58,1,1,0,0,0-.37-.41,1,1,0,0,0-.56-.15,1,1,0,0,0-.55.15,1,1,0,0,0-.36.41,1.21,1.21,0,0,0-.14.58,1.24,1.24,0,0,0,.14.58,1,1,0,0,0,.91.57Z"/><path class="cls-1" d="M65.76,53.94v-.67h1.67a.36.36,0,0,0,.21-.05.38.38,0,0,0,.14-.14.32.32,0,0,0,0-.19.27.27,0,0,0,0-.18.35.35,0,0,0-.13-.14.46.46,0,0,0-.2,0h-.68a1.38,1.38,0,0,1-.59-.11.89.89,0,0,1-.41-.33,1.09,1.09,0,0,1-.14-.57,1,1,0,0,1,.13-.51,1.12,1.12,0,0,1,.38-.37,1,1,0,0,1,.54-.14h1.6v.66H66.75a.35.35,0,0,0-.26.1.3.3,0,0,0-.1.24.29.29,0,0,0,.1.23.37.37,0,0,0,.27.11h.66a1.56,1.56,0,0,1,.64.11.86.86,0,0,1,.4.35,1.11,1.11,0,0,1,.14.58,1,1,0,0,1-.15.53,1.09,1.09,0,0,1-.38.39,1.07,1.07,0,0,1-.56.15Z"/><path class="cls-1" d="M68.88,51.15v-.66h2.44v.66Zm1.58,2.79a.94.94,0,0,1-.72-.27.93.93,0,0,1-.26-.71V49.62h.77v3.3a.37.37,0,0,0,.09.26.37.37,0,0,0,.25.09h.73v.67Z"/><path class="cls-1" d="M73.33,54a1.44,1.44,0,0,1-.85-.25,1.59,1.59,0,0,1-.55-.65,2,2,0,0,1-.19-.9,1.93,1.93,0,0,1,.22-.93,1.58,1.58,0,0,1,.63-.65,1.89,1.89,0,0,1,1-.24,1.8,1.8,0,0,1,1,.24,1.59,1.59,0,0,1,.61.65,2,2,0,0,1,.21.91v1.74h-.77v-.65h0a1.27,1.27,0,0,1-.26.36,1.28,1.28,0,0,1-.4.27A1.56,1.56,0,0,1,73.33,54Zm.21-.66a1,1,0,0,0,.54-.16,1,1,0,0,0,.35-.41,1.14,1.14,0,0,0,.12-.59,1.29,1.29,0,0,0-.12-.57,1.06,1.06,0,0,0-.34-.41,1,1,0,0,0-.54-.15,1,1,0,0,0-.55.15,1,1,0,0,0-.36.41,1.34,1.34,0,0,0-.12.58,1.37,1.37,0,0,0,.12.58,1.08,1.08,0,0,0,.35.41A1,1,0,0,0,73.54,53.36Z"/><path class="cls-1" d="M76.25,53.94V51.47a.9.9,0,0,1,1-1h.84v.66h-.69a.36.36,0,0,0-.26.09.37.37,0,0,0-.09.26v2.44Z"/><path class="cls-1" d="M78.36,51.15v-.66H80.8v.66Zm1.57,2.79a.91.91,0,0,1-1-1V49.62h.77v3.3a.38.38,0,0,0,.1.26.35.35,0,0,0,.25.09h.72v.67Z"/><rect class="cls-2" x="34.17" y="46.31" width="54.54" height="11.34" rx="2.77"/><rect class="cls-2" x="29.54" y="96.89" width="9.01" height="9.01" rx="2.77"/><rect class="cls-2" x="29.54" y="107.85" width="9.01" height="9.01" rx="2.77"/><rect class="cls-2" x="86.93" y="96.89" width="9.01" height="9.01" rx="2.77"/><rect class="cls-2" x="86.93" y="107.85" width="9.01" height="9.01" rx="2.77"/><path class="cls-1" d="M50.77,91.52v-3H51v1.31a.88.88,0,0,1,.35-.34,1,1,0,0,1,.46-.11,1,1,0,0,1,.48.11.89.89,0,0,1,.35.32.92.92,0,0,1,.13.51v1.24h-.2V90.29a.77.77,0,0,0-.11-.42.71.71,0,0,0-.3-.27.81.81,0,0,0-.37-.09.85.85,0,0,0-.38.09.8.8,0,0,0-.29.26.73.73,0,0,0-.12.43v1.23Z"/><path class="cls-1" d="M54.39,91.57a1.08,1.08,0,0,1-.57-.15,1,1,0,0,1-.38-.4,1.1,1.1,0,0,1-.14-.57,1.08,1.08,0,0,1,.14-.56,1,1,0,0,1,.38-.4,1.08,1.08,0,0,1,.57-.15,1,1,0,0,1,.56.15,1,1,0,0,1,.39.4,1.13,1.13,0,0,1,.14.56,1.2,1.2,0,0,1-.14.57,1,1,0,0,1-.39.4A1,1,0,0,1,54.39,91.57Zm0-.17a.88.88,0,0,0,.46-.13.79.79,0,0,0,.31-.34,1,1,0,0,0,.12-.48.94.94,0,0,0-.12-.47.79.79,0,0,0-.31-.34.8.8,0,0,0-.46-.13.78.78,0,0,0-.46.13.81.81,0,0,0-.32.34,1,1,0,0,0-.11.47,1.06,1.06,0,0,0,.11.48.81.81,0,0,0,.32.34A.86.86,0,0,0,54.39,91.4Z"/><path class="cls-1" d="M56.68,91.57a.66.66,0,0,1-.32-.07.54.54,0,0,1-.23-.22.83.83,0,0,1-.09-.41V89.39h.2v1.53a.55.55,0,0,0,.06.28.35.35,0,0,0,.17.15.46.46,0,0,0,.2.05.46.46,0,0,0,.21-.05.52.52,0,0,0,.17-.16.54.54,0,0,0,.06-.27V90a.69.69,0,0,1,.09-.38.54.54,0,0,1,.23-.22.73.73,0,0,1,.3-.06.8.8,0,0,1,.3.06.6.6,0,0,1,.23.22.8.8,0,0,1,.08.38v.92a.54.54,0,0,0,.06.27.52.52,0,0,0,.17.16.54.54,0,0,0,.21.05.46.46,0,0,0,.21-.05.49.49,0,0,0,.16-.16.54.54,0,0,0,.06-.27V89.39h.2v1.48a1,1,0,0,1-.08.41.6.6,0,0,1-.23.22.66.66,0,0,1-.32.07.71.71,0,0,1-.32-.07.54.54,0,0,1-.23-.22.83.83,0,0,1-.09-.41V90a.54.54,0,0,0-.06-.27.36.36,0,0,0-.15-.15.71.71,0,0,0-.2,0,.65.65,0,0,0-.2,0,.33.33,0,0,0-.16.15.54.54,0,0,0-.06.27v.9a.83.83,0,0,1-.09.41.49.49,0,0,1-.23.22A.64.64,0,0,1,56.68,91.57Z"/><path class="cls-1" d="M60.93,89.57v-.18h1.42v.18Zm1,2a.6.6,0,0,1-.44-.17.57.57,0,0,1-.16-.44v-2h.2v2a.5.5,0,0,0,.11.34.45.45,0,0,0,.34.12h.39v.18Z"/><path class="cls-1" d="M63.77,91.57a1,1,0,0,1-.56-.15,1,1,0,0,1-.39-.4,1.21,1.21,0,0,1,0-1.13,1,1,0,0,1,.39-.4,1,1,0,0,1,.56-.15,1.08,1.08,0,0,1,.57.15,1,1,0,0,1,.38.4,1,1,0,0,1,.14.56,1.1,1.1,0,0,1-.14.57,1,1,0,0,1-.38.4A1.08,1.08,0,0,1,63.77,91.57Zm0-.17a.85.85,0,0,0,.45-.13.81.81,0,0,0,.32-.34,1,1,0,0,0,.11-.48.93.93,0,0,0-.11-.47.81.81,0,0,0-.32-.34.77.77,0,0,0-.45-.13.83.83,0,0,0-.47.13A.79.79,0,0,0,63,90a.94.94,0,0,0-.12.47,1,1,0,0,0,.12.48.79.79,0,0,0,.31.34A.92.92,0,0,0,63.78,91.4Z"/><path class="cls-1" d="M68,89.41a1,1,0,0,1,.34.22,1,1,0,0,1,.24.35,1.21,1.21,0,0,1,.09.48,1.11,1.11,0,0,1-.15.6,1,1,0,0,1-.9.51,1.1,1.1,0,0,1-.36-.07.93.93,0,0,1-.3-.2.83.83,0,0,1-.21-.28h0v1.41h-.2v-2a1.17,1.17,0,0,1,.15-.61,1.06,1.06,0,0,1,.39-.37,1.17,1.17,0,0,1,.52-.12A1.09,1.09,0,0,1,68,89.41Zm-.82.21a.79.79,0,0,0-.32.31,1,1,0,0,0-.12.52,1.05,1.05,0,0,0,.12.52.86.86,0,0,0,.32.31.83.83,0,0,0,.42.11.88.88,0,0,0,.42-.11.82.82,0,0,0,.32-.32,1.07,1.07,0,0,0,0-1,.82.82,0,0,0-.32-.32.89.89,0,0,0-.43-.11A.87.87,0,0,0,67.17,89.62Z"/><path class="cls-1" d="M69.22,91.52v-3h.2v3Z"/><path class="cls-1" d="M71,91.57a1,1,0,0,1-.55-.15.88.88,0,0,1-.36-.4,1.32,1.32,0,0,1-.12-.57,1.13,1.13,0,0,1,.13-.56.9.9,0,0,1,.37-.4,1.13,1.13,0,0,1,.59-.15,1,1,0,0,1,.56.15,1,1,0,0,1,.37.38,1.16,1.16,0,0,1,.13.56v1.09h-.2V91h0a1.06,1.06,0,0,1-.18.27,1,1,0,0,1-.3.21A1,1,0,0,1,71,91.57Zm0-.17a.84.84,0,0,0,.45-.12,1,1,0,0,0,.32-.34,1.15,1.15,0,0,0,.11-.5,1,1,0,0,0-.11-.48.8.8,0,0,0-.3-.33.85.85,0,0,0-.46-.12.81.81,0,0,0-.47.13.77.77,0,0,0-.3.34,1.1,1.1,0,0,0-.11.49,1,1,0,0,0,.1.47.89.89,0,0,0,.3.34A.86.86,0,0,0,71.06,91.4Z"/><path class="cls-1" d="M73.67,92.36v-.8a.9.9,0,0,1-.42-.13.86.86,0,0,1-.32-.31,1.07,1.07,0,0,1-.11-.49V89.39H73v1.23a.83.83,0,0,0,.1.43.86.86,0,0,0,.28.26.8.8,0,0,0,.36.09.78.78,0,0,0,.37-.09.66.66,0,0,0,.28-.27.69.69,0,0,0,.11-.42V89.39h.2v1.24a1,1,0,0,1-.12.49.84.84,0,0,1-.31.31.9.9,0,0,1-.42.13v.8Z"/><path class="cls-1" d="M9.89,102.24v-1.1a.73.73,0,0,1,.35-.66.78.78,0,0,1,.41-.1.87.87,0,0,1,.26,0,.57.57,0,0,1,.25.14.6.6,0,0,1,.18.29h0a.69.69,0,0,1,.18-.29.6.6,0,0,1,.26-.14.82.82,0,0,1,.26,0,.72.72,0,0,1,.4.1.67.67,0,0,1,.26.27.83.83,0,0,1,.09.39v1.1h-.17v-1.1a.66.66,0,0,0-.07-.32.63.63,0,0,0-.21-.22.61.61,0,0,0-.3-.08.54.54,0,0,0-.31.09.47.47,0,0,0-.22.22.53.53,0,0,0-.08.31v1.1h-.17v-1.1a.54.54,0,0,0-.09-.31.5.5,0,0,0-.21-.22.57.57,0,0,0-.32-.09.55.55,0,0,0-.29.08.63.63,0,0,0-.21.22.66.66,0,0,0-.08.32v1.1Z"/><path class="cls-1" d="M14.21,102.29a.86.86,0,0,1-.48-.13.9.9,0,0,1-.33-.34,1,1,0,0,1-.12-.49,1,1,0,0,1,.12-.48.93.93,0,0,1,.33-.35,1,1,0,0,1,.48-.13,1,1,0,0,1,.49.13,1,1,0,0,1,.33.34,1.06,1.06,0,0,1,0,1,.92.92,0,0,1-.82.47Zm0-.15a.77.77,0,0,0,.4-.11.84.84,0,0,0,.27-.29,1,1,0,0,0,0-.82.84.84,0,0,0-.27-.29.77.77,0,0,0-.4-.11.71.71,0,0,0-.39.11.69.69,0,0,0-.27.29.89.89,0,0,0,0,.82.69.69,0,0,0,.27.29A.71.71,0,0,0,14.21,102.14Z"/><path class="cls-1" d="M16.28,102.29a.25.25,0,0,1-.16-.06.38.38,0,0,1-.11-.17l-.66-1.64h.19l.63,1.59a.36.36,0,0,0,0,.09l.06,0,0,0,.05-.09.63-1.59h.19l-.66,1.64a.39.39,0,0,1-.12.17A.2.2,0,0,1,16.28,102.29Z"/><path class="cls-1" d="M18.45,102.24a1.19,1.19,0,0,1-.51-.1.87.87,0,0,1-.37-.31.89.89,0,0,1-.14-.5,1.08,1.08,0,0,1,.11-.47.83.83,0,0,1,.29-.35.77.77,0,0,1,.45-.13.87.87,0,0,1,.44.11.78.78,0,0,1,.29.31,1,1,0,0,1,.09.44v.08a.25.25,0,0,1,0,.08H17.61a.78.78,0,0,0,.12.38.76.76,0,0,0,.3.23.92.92,0,0,0,.4.08h.45v.15Zm-.84-1h1.32a1,1,0,0,0,0-.16.73.73,0,0,0-.05-.2.67.67,0,0,0-.11-.18.52.52,0,0,0-.19-.14.65.65,0,0,0-.29-.06.61.61,0,0,0-.28.07.68.68,0,0,0-.21.17.7.7,0,0,0-.13.24A.85.85,0,0,0,17.61,101.26Z"/><path class="cls-1" d="M20.53,102.24V99.63h.17v2.61Z"/><path class="cls-1" d="M22.21,102.24a1.27,1.27,0,0,1-.52-.1.93.93,0,0,1-.37-.31.89.89,0,0,1-.13-.5,1.07,1.07,0,0,1,.1-.47.85.85,0,0,1,.3-.35.73.73,0,0,1,.45-.13.87.87,0,0,1,.44.11.76.76,0,0,1,.28.31.92.92,0,0,1,.1.44v.08s0,.05,0,.08H21.37a.62.62,0,0,0,.12.38.64.64,0,0,0,.3.23.9.9,0,0,0,.4.08h.45v.15Zm-.84-1h1.32s0-.1,0-.16a.76.76,0,0,0-.06-.2.49.49,0,0,0-.11-.18.45.45,0,0,0-.19-.14.62.62,0,0,0-.29-.06.68.68,0,0,0-.28.07.55.55,0,0,0-.2.17.72.72,0,0,0-.14.24A.82.82,0,0,0,21.37,101.26Z"/><path class="cls-1" d="M23.44,102.24v-1.67h-.32v-.15h.32v-.27a.48.48,0,0,1,.14-.38.52.52,0,0,1,.38-.14h.38v.15H24a.38.38,0,0,0-.29.11.44.44,0,0,0-.09.29v.24h.66v.15h-.66v1.67Z"/><path class="cls-1" d="M24.36,100.57v-.15h1.23v.15Zm.84,1.67a.48.48,0,0,1-.38-.14.52.52,0,0,1-.14-.38V100h.17v1.73a.45.45,0,0,0,.1.3.37.37,0,0,0,.29.1h.34v.15Z"/><path class="cls-1" d="M5.13,113.79v-1.11a.79.79,0,0,1,.09-.38.7.7,0,0,1,.26-.28.72.72,0,0,1,.4-.1.82.82,0,0,1,.26,0,.73.73,0,0,1,.26.14.72.72,0,0,1,.17.3h0a.74.74,0,0,1,.19-.3A.66.66,0,0,1,7,112a.77.77,0,0,1,.25,0,.78.78,0,0,1,.41.1.7.7,0,0,1,.26.28.92.92,0,0,1,.08.38v1.11H7.86v-1.11a.66.66,0,0,0-.08-.32.53.53,0,0,0-.21-.21.52.52,0,0,0-.3-.08.55.55,0,0,0-.31.08.58.58,0,0,0-.22.22.62.62,0,0,0-.08.31v1.11H6.49v-1.11a.62.62,0,0,0-.08-.31.66.66,0,0,0-.22-.22.55.55,0,0,0-.31-.08.52.52,0,0,0-.3.08.53.53,0,0,0-.21.21.66.66,0,0,0-.07.32v1.11Z"/><path class="cls-1" d="M9.44,113.83a1,1,0,0,1-.48-.12.93.93,0,0,1-.33-.35,1,1,0,0,1-.12-.49,1,1,0,0,1,.12-.48A.93.93,0,0,1,9,112a1,1,0,0,1,.48-.12,1,1,0,0,1,.49.12.93.93,0,0,1,.33.35,1,1,0,0,1,.12.48,1,1,0,0,1-.12.49.93.93,0,0,1-.33.35A1,1,0,0,1,9.44,113.83Zm0-.15a.66.66,0,0,0,.39-.11.76.76,0,0,0,.27-.29.89.89,0,0,0,0-.82.94.94,0,0,0-.27-.29.73.73,0,0,0-.39-.1.74.74,0,0,0-.4.1.71.71,0,0,0-.27.3.77.77,0,0,0-.1.4.84.84,0,0,0,.1.42.66.66,0,0,0,.27.28A.67.67,0,0,0,9.45,113.68Z"/><path class="cls-1" d="M11.51,113.83a.2.2,0,0,1-.15-.06.39.39,0,0,1-.12-.17L10.58,112h.2l.63,1.59a.29.29,0,0,0,0,.08.07.07,0,0,0,.06,0s0,0,.05,0a.28.28,0,0,0,0-.08l.63-1.59h.19l-.66,1.64a.45.45,0,0,1-.11.17A.25.25,0,0,1,11.51,113.83Z"/><path class="cls-1" d="M13.69,113.79a1.24,1.24,0,0,1-.52-.11.81.81,0,0,1-.37-.31.87.87,0,0,1-.13-.5,1.1,1.1,0,0,1,.1-.47,1,1,0,0,1,.29-.35.78.78,0,0,1,.46-.13A.9.9,0,0,1,14,112a.84.84,0,0,1,.28.31.92.92,0,0,1,.1.44v.08s0,0,0,.08H12.84a.67.67,0,0,0,.13.38.66.66,0,0,0,.3.24,1,1,0,0,0,.4.08h.44v.15Zm-.85-1h1.32a.5.5,0,0,0,0-.17.49.49,0,0,0-.05-.2.58.58,0,0,0-.11-.18.55.55,0,0,0-.19-.14.65.65,0,0,0-.29-.05.64.64,0,0,0-.28.06.68.68,0,0,0-.21.17,1.41,1.41,0,0,0-.13.24A.86.86,0,0,0,12.84,112.81Z"/><path class="cls-1" d="M16.25,113.77a.92.92,0,0,1-.3-.18,1.1,1.1,0,0,1-.2-.31,1.07,1.07,0,0,1-.08-.41,1,1,0,0,1,.13-.51.87.87,0,0,1,.33-.33.93.93,0,0,1,.44-.11.81.81,0,0,1,.31.06.78.78,0,0,1,.26.17.69.69,0,0,1,.18.24h0v-1.21h.17v1.71a1.05,1.05,0,0,1-.13.52.87.87,0,0,1-.78.42A1,1,0,0,1,16.25,113.77Zm.7-.18a.7.7,0,0,0,.27-.27.84.84,0,0,0,.11-.44.87.87,0,0,0-.11-.44.75.75,0,0,0-.28-.28.73.73,0,0,0-.35-.09.71.71,0,0,0-.37.1.7.7,0,0,0-.27.27.85.85,0,0,0-.1.43.88.88,0,0,0,.1.45.72.72,0,0,0,.28.27.76.76,0,0,0,.72,0Z"/><path class="cls-1" d="M18.91,113.83a1,1,0,0,1-.48-.12.93.93,0,0,1-.33-.35,1,1,0,0,1-.12-.49,1,1,0,0,1,.12-.48.93.93,0,0,1,.33-.35,1,1,0,0,1,.48-.12,1,1,0,0,1,.49.12.93.93,0,0,1,.33.35,1,1,0,0,1,.12.48,1,1,0,0,1-.12.49.93.93,0,0,1-.33.35A1,1,0,0,1,18.91,113.83Zm0-.15a.68.68,0,0,0,.39-.11.76.76,0,0,0,.27-.29.89.89,0,0,0,0-.82.94.94,0,0,0-.27-.29.76.76,0,0,0-.39-.1.72.72,0,0,0-.4.1.71.71,0,0,0-.27.3.77.77,0,0,0-.1.4.84.84,0,0,0,.1.42.66.66,0,0,0,.27.28A.65.65,0,0,0,18.92,113.68Z"/><path class="cls-1" d="M20.88,113.83a.67.67,0,0,1-.28-.06.44.44,0,0,1-.19-.19.72.72,0,0,1-.08-.35V112h.17v1.31a.54.54,0,0,0,.05.24.43.43,0,0,0,.14.13.42.42,0,0,0,.36,0,.29.29,0,0,0,.14-.13.43.43,0,0,0,.06-.24v-.78a.62.62,0,0,1,.07-.33.46.46,0,0,1,.2-.19.71.71,0,0,1,.26,0,.7.7,0,0,1,.25,0,.41.41,0,0,1,.2.19.62.62,0,0,1,.07.33v.78a.43.43,0,0,0,.06.24.29.29,0,0,0,.14.13.39.39,0,0,0,.18,0,.37.37,0,0,0,.18,0,.43.43,0,0,0,.14-.13.54.54,0,0,0,.05-.24V112h.17v1.27a.73.73,0,0,1-.07.35.46.46,0,0,1-.2.19.64.64,0,0,1-.54,0,.41.41,0,0,1-.2-.19.72.72,0,0,1-.08-.35v-.77a.37.37,0,0,0-.05-.23.33.33,0,0,0-.13-.13.51.51,0,0,0-.17,0,.57.57,0,0,0-.18,0,.4.4,0,0,0-.13.13.46.46,0,0,0,0,.23v.77a.87.87,0,0,1-.07.35.52.52,0,0,1-.2.19A.6.6,0,0,1,20.88,113.83Z"/><path class="cls-1" d="M23.8,113.79v-1.07a.76.76,0,0,1,.41-.71.93.93,0,0,1,.4-.09.87.87,0,0,1,.4.09.79.79,0,0,1,.42.71v1.07h-.18v-1.06a.69.69,0,0,0-.09-.36.66.66,0,0,0-.24-.23.72.72,0,0,0-.62,0,.59.59,0,0,0-.24.23.66.66,0,0,0-.09.36v1.06Z"/><path class="cls-1" d="M58,107.65v-.15h.85a.4.4,0,0,0,.22-.06.35.35,0,0,0,.13-.14.45.45,0,0,0,.05-.19.29.29,0,0,0,0-.16.3.3,0,0,0-.12-.13.33.33,0,0,0-.21,0h-.39a.73.73,0,0,1-.3-.06.42.42,0,0,1-.18-.17.46.46,0,0,1-.06-.23.48.48,0,0,1,.06-.24.58.58,0,0,1,.17-.18.61.61,0,0,1,.28-.07h.81V106h-.8a.34.34,0,0,0-.25.1.35.35,0,0,0-.09.23.33.33,0,0,0,.09.22.38.38,0,0,0,.28.09h.36a.63.63,0,0,1,.32.07.52.52,0,0,1,.19.17.54.54,0,0,1,.06.25.48.48,0,0,1-.07.26.76.76,0,0,1-.19.21.52.52,0,0,1-.29.08Z"/><path class="cls-1" d="M59.89,107.65V105h.17v1.13a.68.68,0,0,1,.29-.29.82.82,0,0,1,.4-.1.91.91,0,0,1,.41.09.81.81,0,0,1,.3.28.73.73,0,0,1,.12.43v1.07H61.4v-1.06a.69.69,0,0,0-.09-.36.64.64,0,0,0-.58-.3.71.71,0,0,0-.32.07.67.67,0,0,0-.25.22.62.62,0,0,0-.1.37v1.06Z"/><path class="cls-1" d="M63,107.69a1,1,0,0,1-.48-.12.93.93,0,0,1-.33-.35,1,1,0,0,1-.12-.49,1,1,0,0,1,.12-.48.93.93,0,0,1,.33-.35,1,1,0,0,1,.48-.12,1,1,0,0,1,.49.12.93.93,0,0,1,.33.35,1,1,0,0,1,.12.48,1,1,0,0,1-.12.49.93.93,0,0,1-.33.35A1,1,0,0,1,63,107.69Zm0-.15a.7.7,0,0,0,.66-.4.8.8,0,0,0,.1-.41.83.83,0,0,0-.1-.41.75.75,0,0,0-.27-.29.71.71,0,0,0-.39-.1.74.74,0,0,0-.4.1.71.71,0,0,0-.27.3.88.88,0,0,0-.1.4,1,1,0,0,0,.1.42.71.71,0,0,0,.67.39Z"/><path class="cls-1" d="M65.26,107.69a1,1,0,0,1-.49-.12.93.93,0,0,1-.33-.35,1,1,0,0,1-.12-.49,1,1,0,0,1,.12-.48.93.93,0,0,1,.33-.35,1,1,0,0,1,.49-.12,1,1,0,0,1,.48.12.93.93,0,0,1,.33.35,1,1,0,0,1,.12.48,1,1,0,0,1-.12.49.93.93,0,0,1-.33.35A1,1,0,0,1,65.26,107.69Zm0-.15a.7.7,0,0,0,.66-.4.8.8,0,0,0,.1-.41.83.83,0,0,0-.1-.41.75.75,0,0,0-.27-.29.71.71,0,0,0-.39-.1.77.77,0,0,0-.4.1.84.84,0,0,0-.37.7,1,1,0,0,0,.1.42.94.94,0,0,0,.27.29A.77.77,0,0,0,65.26,107.54Z"/><path class="cls-1" d="M66.38,106v-.15H67.6V106Zm.84,1.68a.52.52,0,0,1-.38-.14.54.54,0,0,1-.14-.38v-1.76h.17v1.73a.39.39,0,0,0,.1.29.37.37,0,0,0,.29.11h.33v.15Z"/><path class="cls-1" d="M99.69,102.24v-1.1a.83.83,0,0,1,.09-.39.75.75,0,0,1,.26-.27.76.76,0,0,1,.41-.1.77.77,0,0,1,.25,0,.55.55,0,0,1,.26.14.6.6,0,0,1,.18.29h0a.62.62,0,0,1,.44-.43.82.82,0,0,1,.26,0,.71.71,0,0,1,.66.37.83.83,0,0,1,.09.39v1.1h-.17v-1.1a.57.57,0,0,0-.08-.32.7.7,0,0,0-.2-.22.61.61,0,0,0-.3-.08.59.59,0,0,0-.32.09.58.58,0,0,0-.22.22.62.62,0,0,0-.08.31v1.1h-.17v-1.1a.53.53,0,0,0-.08-.31.47.47,0,0,0-.22-.22.54.54,0,0,0-.31-.09.61.61,0,0,0-.3.08.63.63,0,0,0-.21.22.66.66,0,0,0-.07.32v1.1Z"/><path class="cls-1" d="M104,102.29a.86.86,0,0,1-.48-.13.83.83,0,0,1-.33-.34,1,1,0,0,1-.12-.49,1,1,0,0,1,.12-.48.85.85,0,0,1,.33-.35,1,1,0,0,1,1,0,1,1,0,0,1,.33.34,1.06,1.06,0,0,1,0,1,.9.9,0,0,1-.33.34A.86.86,0,0,1,104,102.29Zm0-.15a.71.71,0,0,0,.39-.11.69.69,0,0,0,.27-.29.89.89,0,0,0,0-.82.69.69,0,0,0-.27-.29.71.71,0,0,0-.39-.11.77.77,0,0,0-.4.11.84.84,0,0,0-.27.29,1,1,0,0,0,0,.82.84.84,0,0,0,.27.29A.77.77,0,0,0,104,102.14Z"/><path class="cls-1" d="M106.07,102.29a.24.24,0,0,1-.15-.06.38.38,0,0,1-.11-.17l-.66-1.64h.19L106,102a.36.36,0,0,0,0,.09.11.11,0,0,0,.06,0l0,0a.39.39,0,0,0,0-.09l.64-1.59H107l-.67,1.64a.38.38,0,0,1-.11.17A.2.2,0,0,1,106.07,102.29Z"/><path class="cls-1" d="M108.25,102.24a1.27,1.27,0,0,1-.52-.1.9.9,0,0,1-.36-.31.89.89,0,0,1-.14-.5,1.07,1.07,0,0,1,.1-.47.85.85,0,0,1,.3-.35.77.77,0,0,1,.45-.13.87.87,0,0,1,.44.11.76.76,0,0,1,.28.31.92.92,0,0,1,.1.44v.08a.25.25,0,0,1,0,.08h-1.48a.62.62,0,0,0,.12.38.76.76,0,0,0,.3.23.9.9,0,0,0,.4.08h.45v.15Zm-.84-1h1.32a1,1,0,0,0,0-.16,1.46,1.46,0,0,0,0-.2.71.71,0,0,0-.12-.18.4.4,0,0,0-.19-.14.62.62,0,0,0-.29-.06.6.6,0,0,0-.27.07.51.51,0,0,0-.21.17.7.7,0,0,0-.13.24A.63.63,0,0,0,107.41,101.26Z"/><path class="cls-1" d="M110.33,102.24v-1.3a.48.48,0,0,1,.14-.38.51.51,0,0,1,.38-.14h.25v.15h-.22a.39.39,0,0,0-.29.1.45.45,0,0,0-.09.3v1.27Z"/><path class="cls-1" d="M111.53,100.06a.18.18,0,0,1-.1,0,.14.14,0,0,1,0-.2.15.15,0,0,1,.1,0,.18.18,0,0,1,.09,0,.15.15,0,0,1,0,.2A.15.15,0,0,1,111.53,100.06Zm-.09,2.18v-1.82h.17v1.82Z"/><path class="cls-1" d="M112.46,103v-.15h.85a.45.45,0,0,0,.33-.12.51.51,0,0,0,.11-.34v-.55h0a1,1,0,0,1-.16.22,1,1,0,0,1-.26.18.75.75,0,0,1-.35.07.8.8,0,0,1-.77-.46,1.14,1.14,0,0,1-.11-.49,1.06,1.06,0,0,1,.11-.48.79.79,0,0,1,.31-.34.88.88,0,0,1,.49-.13,1,1,0,0,1,.48.12.78.78,0,0,1,.32.33,1,1,0,0,1,.12.49v1.07a.54.54,0,0,1-.58.58Zm.53-.84a.71.71,0,0,0,.39-.1.69.69,0,0,0,.27-.29.82.82,0,0,0,.1-.42.87.87,0,0,0-.09-.4.75.75,0,0,0-.27-.29.81.81,0,0,0-.39-.1.75.75,0,0,0-.4.11.65.65,0,0,0-.25.29.93.93,0,0,0-.09.42.86.86,0,0,0,.09.39.66.66,0,0,0,.64.39Z"/><path class="cls-1" d="M114.49,102.24V99.63h.17v1.13a.7.7,0,0,1,.3-.29.88.88,0,0,1,.4-.1.91.91,0,0,1,.4.1.66.66,0,0,1,.3.27.78.78,0,0,1,.12.44v1.06H116v-1a.66.66,0,0,0-.1-.36.61.61,0,0,0-.25-.23.76.76,0,0,0-.33-.08.72.72,0,0,0-.32.08.65.65,0,0,0-.25.22.7.7,0,0,0-.1.37v1Z"/><path class="cls-1" d="M116.53,100.57v-.15h1.22v.15Zm.84,1.67a.47.47,0,0,1-.38-.14.48.48,0,0,1-.14-.38V100H117v1.73a.4.4,0,0,0,.1.3.37.37,0,0,0,.29.1h.33v.15Z"/><path class="cls-1" d="M99.69,113.79v-1.11a.79.79,0,0,1,.09-.38A.7.7,0,0,1,100,112a.76.76,0,0,1,.41-.1.77.77,0,0,1,.25,0,.66.66,0,0,1,.26.14.64.64,0,0,1,.18.3h0a.64.64,0,0,1,.18-.3.73.73,0,0,1,.26-.14.82.82,0,0,1,.26,0,.74.74,0,0,1,.4.1.7.7,0,0,1,.26.28.79.79,0,0,1,.09.38v1.11h-.17v-1.11a.57.57,0,0,0-.08-.32.58.58,0,0,0-.2-.21.52.52,0,0,0-.3-.08.59.59,0,0,0-.32.08.66.66,0,0,0-.22.22.62.62,0,0,0-.08.31v1.11h-.17v-1.11a.53.53,0,0,0-.08-.31.52.52,0,0,0-.22-.22.53.53,0,0,0-.31-.08.52.52,0,0,0-.3.08.53.53,0,0,0-.21.21.66.66,0,0,0-.07.32v1.11Z"/><path class="cls-1" d="M104,113.83a1,1,0,0,1-.48-.12.85.85,0,0,1-.33-.35,1,1,0,0,1-.12-.49,1,1,0,0,1,.12-.48.85.85,0,0,1,.33-.35,1,1,0,0,1,1,0,.93.93,0,0,1,.33.35,1,1,0,0,1,.12.48,1,1,0,0,1-.12.49.93.93,0,0,1-.33.35A1,1,0,0,1,104,113.83Zm0-.15a.74.74,0,0,0,.66-.4.89.89,0,0,0,0-.82.75.75,0,0,0-.27-.29.71.71,0,0,0-.39-.1.77.77,0,0,0-.4.1.8.8,0,0,0-.36.7,1,1,0,0,0,.09.42.81.81,0,0,0,.27.28A.69.69,0,0,0,104,113.68Z"/><path class="cls-1" d="M106.07,113.83a.24.24,0,0,1-.15-.06.38.38,0,0,1-.11-.17l-.66-1.63h.19l.63,1.59a.28.28,0,0,0,0,.08s0,0,.06,0,0,0,0,0a.29.29,0,0,0,0-.08l.64-1.59H107l-.67,1.64a.45.45,0,0,1-.11.17A.25.25,0,0,1,106.07,113.83Z"/><path class="cls-1" d="M108.25,113.79a1.27,1.27,0,0,1-.52-.11.83.83,0,0,1-.36-.31.87.87,0,0,1-.14-.5,1.1,1.1,0,0,1,.1-.47.92.92,0,0,1,.3-.35.77.77,0,0,1,.45-.13.87.87,0,0,1,.44.11.76.76,0,0,1,.28.31.92.92,0,0,1,.1.44v.08a.22.22,0,0,1,0,.08h-1.48a.6.6,0,0,0,.12.38.78.78,0,0,0,.3.24,1.06,1.06,0,0,0,.4.08h.45v.15Zm-.84-1h1.32a1,1,0,0,0,0-.17,1.46,1.46,0,0,0,0-.2.94.94,0,0,0-.12-.18.47.47,0,0,0-.19-.14.63.63,0,0,0-.29-.05.6.6,0,0,0-.27.06.51.51,0,0,0-.21.17.94.94,0,0,0-.13.24A.65.65,0,0,0,107.41,112.81Z"/><path class="cls-1" d="M111.15,113.83a.9.9,0,0,1-.4-.09.74.74,0,0,1-.3-.28.73.73,0,0,1-.12-.43V112h.17V113a.61.61,0,0,0,.1.36.59.59,0,0,0,.24.23.63.63,0,0,0,.3.07.61.61,0,0,0,.32-.08.56.56,0,0,0,.24-.22.69.69,0,0,0,.09-.36V112H112V113a.73.73,0,0,1-.11.43.89.89,0,0,1-.3.28A.9.9,0,0,1,111.15,113.83Z"/><path class="cls-1" d="M113.79,112a.79.79,0,0,1,.29.18.85.85,0,0,1,.21.31,1,1,0,0,1,.07.41,1,1,0,0,1-.12.51,1,1,0,0,1-.33.33,1,1,0,0,1-.44.11.81.81,0,0,1-.31-.06.78.78,0,0,1-.26-.17.69.69,0,0,1-.18-.24h0v1.21h-.17v-1.71a1,1,0,0,1,.13-.52A.92.92,0,0,1,113,112a1,1,0,0,1,.45-.1A1,1,0,0,1,113.79,112Zm-.7.18a.59.59,0,0,0-.27.27.84.84,0,0,0-.11.44.87.87,0,0,0,.11.44.69.69,0,0,0,.63.37.65.65,0,0,0,.36-.1.8.8,0,0,0,.28-.27.87.87,0,0,0,.1-.44.78.78,0,0,0-.11-.44.7.7,0,0,0-.27-.27.81.81,0,0,0-.37-.09A.73.73,0,0,0,113.09,112.16Z"/><rect class="cls-2" x="42.64" y="102.37" width="40.2" height="9.01" rx="2.77"/><polygon class="cls-1" points="35.26 104.04 35.47 103.83 33.03 101.39 35.47 98.96 35.26 98.75 32.69 101.32 32.64 101.39 32.62 101.4 35.26 104.04"/><polygon class="cls-1" points="36.69 111.15 36.48 110.94 34.05 113.38 31.61 110.94 31.4 111.15 33.97 113.72 34.04 113.77 34.06 113.79 36.69 111.15"/><polygon class="cls-1" points="90.22 98.75 90.01 98.96 92.45 101.39 90.01 103.83 90.22 104.04 92.79 101.47 92.84 101.4 92.86 101.38 90.22 98.75"/><polygon class="cls-1" points="88.79 113.58 89 113.79 91.44 111.35 93.87 113.79 94.08 113.58 91.52 111.01 91.44 110.95 91.43 110.94 88.79 113.58"/><line class="cls-2" y1="82.46" x2="122.88" y2="82.46"/><path class="cls-1" d="M122.63.25V122.63H.25V.25H122.63m.25-.25H0V122.88H122.88V0Z"/></g></g></svg>